<svg id="visual" viewBox="0 0 900 600" width="900" height="600" xmlns="http://www.w3.org/2000/svg" xmlns:xlink="http://www.w3.org/1999/xlink" version="1.1"><rect x="0" y="0" width="900" height="600" fill="#07080d"></rect><path d="M0 154L21.5 154.3C43 154.7 86 155.3 128.8 149.7C171.7 144 214.3 132 257.2 134.2C300 136.3 343 152.7 385.8 158.8C428.7 165 471.3 161 514.2 155.2C557 149.3 600 141.7 642.8 130.3C685.7 119 728.3 104 771.2 100.5C814 97 857 105 878.5 109L900 113L900 0L878.5 0C857 0 814 0 771.2 0C728.3 0 685.7 0 642.8 0C600 0 557 0 514.2 0C471.3 0 428.7 0 385.8 0C343 0 300 0 257.2 0C214.3 0 171.7 0 128.8 0C86 0 43 0 21.5 0L0 0Z" fill="#041574" stroke-linecap="round" stroke-linejoin="miter"></path></svg>